<?xml version="1.0" encoding="UTF-8"?>
<svg id="Layer_1" data-name="Layer 1" xmlns="http://www.w3.org/2000/svg" version="1.1" viewBox="0 0 1080 1080">
  <defs>
    <style>
      .cls-1 {
        fill: #000;
      }

      .cls-1, .cls-2 {
        stroke-width: 0px;
      }

      .cls-2 {
        fill: #e1e1e1;
      }
    </style>
  </defs>
  <rect class="cls-1" width="1080" height="1080"/>
  <g>
    <g>
      <polygon class="cls-2" points="438.82 635.86 442.9 635.86 455.84 656.84 455.92 656.84 455.92 635.86 460.25 635.86 460.25 665.37 456.15 665.37 443.22 644.39 443.14 644.39 443.14 665.37 438.82 665.37 438.82 635.86"/>
      <path class="cls-2" d="M466.81,644.36h4.09v12.53c0,1.42.39,2.53,1.16,3.32.76.8,1.73,1.2,2.9,1.2s2.14-.4,2.88-1.2c.76-.8,1.14-1.9,1.14-3.32v-12.53h4.09v21.01h-4.09v-2.25h-.08c-1.35,1.66-3.1,2.49-5.27,2.49-1.68-.03-3.21-.66-4.56-1.9-1.48-1.21-2.23-3-2.25-5.37v-13.98Z"/>
      <path class="cls-2" d="M489.07,644.36h4.09v2.23h.09c1.35-1.66,3.11-2.49,5.3-2.49,1.63.03,3.06.57,4.28,1.61l-2.98,3.65c-.86-.7-1.76-1.05-2.69-1.05-1.05,0-1.94.35-2.69,1.05-.84.69-1.27,1.8-1.3,3.34v12.67h-4.09v-21.01Z"/>
      <path class="cls-2" d="M505.45,637.97h4.09v6.4h2.98v3.24h-2.98v12.25c-.03,1.07.46,1.59,1.45,1.56h1.53v3.96h-2.13c-1.43,0-2.61-.46-3.52-1.37-.94-.88-1.41-2.14-1.41-3.8v-12.6h-2.05v-3.24h2.05v-6.4Z"/>
      <path class="cls-2" d="M516.72,644.36h4.09v12.53c0,1.42.39,2.53,1.16,3.32.76.8,1.73,1.2,2.9,1.2s2.14-.4,2.88-1.2c.76-.8,1.14-1.9,1.14-3.32v-12.53h4.09v21.01h-4.09v-2.25h-.08c-1.35,1.66-3.1,2.49-5.27,2.49-1.68-.03-3.2-.66-4.56-1.9-1.48-1.21-2.23-3-2.25-5.37v-13.98Z"/>
      <path class="cls-2" d="M538.99,644.36h4.09v2.23h.08c1.35-1.66,3.11-2.49,5.3-2.49,1.63.03,3.06.57,4.27,1.61l-2.98,3.65c-.86-.7-1.76-1.05-2.69-1.05-1.05,0-1.94.35-2.69,1.05-.84.69-1.27,1.8-1.3,3.34v12.67h-4.09v-21.01Z"/>
      <path class="cls-2" d="M555.24,635.86h4.09v4.21h-4.09v-4.21ZM555.24,644.36h4.09v21.01h-4.09v-21.01Z"/>
      <path class="cls-2" d="M565.06,644.36h4.09v2.23h.08c1.35-1.66,3.11-2.49,5.29-2.49,1.69,0,3.23.61,4.62,1.84,1.38,1.24,2.11,3.06,2.17,5.47v13.97h-4.09v-12.53c0-1.47-.38-2.59-1.14-3.36-.75-.78-1.71-1.17-2.88-1.17s-2.14.39-2.9,1.17c-.77.77-1.16,1.89-1.16,3.36v12.53h-4.09v-21.01Z"/>
      <path class="cls-2" d="M598.76,663.18c-1.35,1.57-3.09,2.38-5.25,2.44-1.32-.03-2.42-.32-3.29-.87-.91-.53-1.61-1.09-2.1-1.7-.54-.69-.92-1.53-1.16-2.53-.25-.99-.37-2.86-.37-5.63s.13-4.73.37-5.73c.23-.99.62-1.82,1.16-2.49.48-.66,1.18-1.25,2.1-1.77.87-.5,1.97-.76,3.29-.78,2.02,0,3.77.83,5.25,2.49v-2.23h4.09v20.51c-.05,3.16-.93,5.48-2.64,6.96-1.72,1.52-3.79,2.29-6.19,2.29-2.75-.05-5.1-1.22-7.05-3.51l3.17-2.61c.52.5,1.12.93,1.8,1.28.69.4,1.41.6,2.15.63,1.4,0,2.52-.4,3.37-1.2.84-.81,1.27-1.94,1.29-3.37v-2.15ZM590.68,654.89c0,1.61.05,2.72.16,3.33.09.64.31,1.17.65,1.59.28.38.69.72,1.26,1.04.53.38,1.2.57,2,.57s1.46-.19,2-.57c.54-.31.94-.66,1.22-1.04.34-.42.57-.95.69-1.59.08-.61.12-1.72.12-3.33s-.04-2.77-.12-3.41c-.12-.64-.35-1.15-.69-1.54-.27-.38-.68-.75-1.22-1.12-.54-.31-1.2-.48-2-.51-.8.03-1.47.2-2,.51-.56.37-.98.74-1.26,1.12-.34.39-.55.91-.65,1.54-.1.64-.16,1.77-.16,3.41"/>
      <polygon class="cls-2" points="624.12 653.23 615.52 635.86 620.11 635.86 626.17 648.95 632.23 635.86 636.82 635.86 628.21 653.23 628.21 665.37 624.12 665.37 624.12 653.23"/>
      <path class="cls-2" d="M635.18,654.85c0-2.22.17-3.92.53-5.11.37-1.16.93-2.14,1.69-2.94.56-.7,1.35-1.32,2.35-1.87.99-.52,2.27-.8,3.82-.83,1.61.03,2.91.3,3.9.83.98.55,1.74,1.18,2.27,1.88.81.8,1.38,1.77,1.72,2.94.33,1.19.49,2.89.49,5.1s-.16,3.9-.49,5.06c-.34,1.16-.92,2.17-1.72,3.02-.26.31-.58.61-.96.91-.34.34-.78.63-1.31.87-.99.58-2.29.88-3.9.91-1.56-.03-2.83-.33-3.82-.91-1.01-.53-1.79-1.12-2.35-1.78-.76-.85-1.32-1.85-1.69-3.02-.35-1.16-.53-2.85-.53-5.06M647.87,654.89c0-1.5-.07-2.6-.2-3.29-.13-.66-.4-1.25-.81-1.75-.3-.47-.75-.85-1.34-1.12-.56-.28-1.22-.43-1.97-.43-.7,0-1.34.14-1.93.43-.56.27-1.02.64-1.38,1.12-.35.5-.61,1.09-.77,1.75-.16.69-.23,1.77-.23,3.25s.08,2.53.23,3.21c.16.69.41,1.3.77,1.83.35.41.81.77,1.38,1.08.59.3,1.23.45,1.93.45.75,0,1.4-.15,1.97-.45.59-.31,1.03-.67,1.34-1.08.41-.53.67-1.14.81-1.83.13-.68.2-1.73.2-3.17"/>
      <path class="cls-2" d="M656.91,644.36h4.09v12.53c0,1.42.39,2.53,1.16,3.32.76.8,1.73,1.2,2.9,1.2s2.14-.4,2.88-1.2c.76-.8,1.14-1.9,1.14-3.32v-12.53h4.09v21.01h-4.09v-2.25h-.08c-1.35,1.66-3.1,2.49-5.27,2.49-1.68-.03-3.2-.66-4.56-1.9-1.48-1.21-2.23-3-2.25-5.37v-13.98Z"/>
      <path class="cls-2" d="M679.18,644.36h4.09v2.23h.09c1.35-1.66,3.11-2.49,5.3-2.49,1.63.03,3.06.57,4.28,1.61l-2.98,3.65c-.86-.7-1.76-1.05-2.69-1.05-1.05,0-1.94.35-2.69,1.05-.84.69-1.27,1.8-1.3,3.34v12.67h-4.09v-21.01Z"/>
      <path class="cls-2" d="M705.61,635.86h11.08c2.81.03,4.92.76,6.33,2.19,1.42,1.44,2.14,3.35,2.14,5.73.03,1.22-.25,2.37-.84,3.48-.3.53-.73,1.03-1.29,1.5-.56.5-1.26.95-2.08,1.35v.08c1.56.42,2.74,1.26,3.54,2.53.75,1.31,1.12,2.73,1.12,4.27-.03,2.55-.8,4.57-2.32,6.05-1.51,1.55-3.38,2.33-5.63,2.33h-12.05v-29.51ZM709.94,639.83v8.49h6.26c1.58,0,2.75-.43,3.49-1.28.76-.79,1.14-1.77,1.14-2.97s-.38-2.2-1.14-3.03c-.75-.77-1.91-1.17-3.49-1.2h-6.26ZM709.94,652.27v8.89h6.68c1.61-.03,2.79-.48,3.54-1.36.75-.87,1.12-1.89,1.12-3.08s-.37-2.26-1.12-3.13c-.75-.85-1.93-1.29-3.54-1.32h-6.68Z"/>
      <path class="cls-2" d="M730.53,644.36h4.09v12.53c0,1.42.39,2.53,1.16,3.32.76.8,1.73,1.2,2.9,1.2s2.14-.4,2.88-1.2c.76-.8,1.14-1.9,1.14-3.32v-12.53h4.09v21.01h-4.09v-2.25h-.08c-1.35,1.66-3.1,2.49-5.27,2.49-1.68-.03-3.21-.66-4.56-1.9-1.48-1.21-2.23-3-2.25-5.37v-13.98Z"/>
      <path class="cls-2" d="M753.39,658.96c1.66,1.79,3.81,2.69,6.45,2.69,1.18,0,2.14-.24,2.89-.71.75-.47,1.12-1.13,1.12-1.98,0-.76-.22-1.28-.67-1.58-.46-.31-1.07-.48-1.83-.51l-3.61-.32c-1.72-.16-3.11-.76-4.19-1.78-1.1-1-1.66-2.4-1.69-4.19.03-2.16.76-3.78,2.22-4.86,1.41-1.08,3.21-1.62,5.38-1.62.94,0,1.78.06,2.53.18.75.14,1.44.32,2.1.57,1.26.53,2.38,1.24,3.38,2.13l-2.54,3.05c-.78-.58-1.62-1.07-2.49-1.45-.87-.34-1.86-.51-2.99-.51-1.29,0-2.18.24-2.69.71-.54.47-.81,1.08-.81,1.82-.03.47.18.89.61,1.24.39.39,1.09.64,2.08.75l3.38.27c2.12.16,3.66.82,4.6,1.99.88,1.13,1.32,2.57,1.32,4.32-.03,2.04-.83,3.61-2.41,4.72-1.57,1.13-3.58,1.72-6.02,1.74-3.32,0-6.31-1.25-8.96-3.76l2.85-2.9Z"/>
      <path class="cls-2" d="M772.82,635.86h4.09v4.21h-4.09v-4.21ZM772.82,644.36h4.09v21.01h-4.09v-21.01Z"/>
      <path class="cls-2" d="M782.63,644.36h4.09v2.23h.08c1.35-1.66,3.11-2.49,5.29-2.49,1.69,0,3.23.61,4.62,1.84,1.38,1.24,2.11,3.06,2.17,5.47v13.97h-4.09v-12.53c0-1.47-.38-2.59-1.14-3.36-.74-.78-1.7-1.17-2.88-1.17s-2.14.39-2.9,1.17c-.77.77-1.16,1.89-1.16,3.36v12.53h-4.09v-21.01Z"/>
      <path class="cls-2" d="M807.97,656.46c0,1.69.47,2.97,1.41,3.85.88.89,2.03,1.34,3.45,1.34,1.66,0,3.14-.68,4.45-2.04l2.96,2.61c-2.08,2.29-4.52,3.43-7.33,3.4-1.07,0-2.12-.16-3.14-.49-.51-.17-1.01-.41-1.49-.71-.51-.25-.99-.57-1.43-.95-.86-.78-1.56-1.88-2.1-3.28-.59-1.35-.88-3.1-.88-5.26s.25-3.8.76-5.18c.51-1.4,1.16-2.51,1.96-3.32.81-.82,1.72-1.42,2.72-1.78.99-.36,1.97-.55,2.94-.55,2.33.03,4.29.82,5.9,2.37,1.63,1.58,2.46,3.75,2.49,6.52v3.48h-12.69ZM816.58,652.99c-.05-1.64-.48-2.88-1.28-3.72-.79-.8-1.79-1.2-3.03-1.2s-2.24.4-3.03,1.2c-.77.84-1.2,2.08-1.27,3.72h8.61Z"/>
      <path class="cls-2" d="M826.22,658.96c1.66,1.79,3.81,2.69,6.45,2.69,1.18,0,2.14-.24,2.89-.71.75-.47,1.12-1.13,1.12-1.98,0-.76-.22-1.28-.67-1.58-.46-.31-1.07-.48-1.83-.51l-3.61-.32c-1.72-.16-3.11-.76-4.19-1.78-1.1-1-1.66-2.4-1.69-4.19.03-2.16.76-3.78,2.22-4.86,1.41-1.08,3.21-1.62,5.38-1.62.94,0,1.78.06,2.53.18.75.14,1.44.32,2.1.57,1.26.53,2.38,1.24,3.38,2.13l-2.54,3.05c-.78-.58-1.62-1.07-2.49-1.45-.87-.34-1.86-.51-2.99-.51-1.29,0-2.18.24-2.69.71-.54.47-.81,1.08-.81,1.82-.03.47.18.89.61,1.24.39.39,1.09.64,2.08.75l3.38.27c2.12.16,3.66.82,4.6,1.99.88,1.13,1.32,2.57,1.32,4.32-.03,2.04-.83,3.61-2.41,4.72-1.57,1.13-3.58,1.72-6.02,1.74-3.32,0-6.31-1.25-8.96-3.76l2.85-2.9Z"/>
      <path class="cls-2" d="M846.12,658.96c1.66,1.79,3.81,2.69,6.45,2.69,1.18,0,2.14-.24,2.89-.71.75-.47,1.12-1.13,1.12-1.98,0-.76-.22-1.28-.67-1.58-.46-.31-1.07-.48-1.83-.51l-3.61-.32c-1.72-.16-3.11-.76-4.19-1.78-1.1-1-1.66-2.4-1.69-4.19.03-2.16.76-3.78,2.22-4.86,1.41-1.08,3.21-1.62,5.38-1.62.94,0,1.78.06,2.53.18.75.14,1.45.32,2.1.57,1.26.53,2.38,1.24,3.38,2.13l-2.54,3.05c-.78-.58-1.62-1.07-2.49-1.45-.87-.34-1.86-.51-2.99-.51-1.29,0-2.18.24-2.69.71-.54.47-.81,1.08-.81,1.82-.03.47.18.89.61,1.24.39.39,1.09.64,2.08.75l3.38.27c2.12.16,3.66.82,4.6,1.99.88,1.13,1.32,2.57,1.32,4.32-.03,2.04-.83,3.61-2.41,4.72-1.57,1.13-3.58,1.72-6.02,1.74-3.32,0-6.31-1.25-8.96-3.76l2.85-2.9Z"/>
    </g>
    <g>
      <path class="cls-2" d="M361.7,586.07v-23.29h10.86v-76.01h-10.86v-23.12h53.42c42.38,0,66.55,26.1,66.55,59.55,0,39.93-24.17,62.87-67.25,62.87h-52.72ZM415.12,486.76h-6.66v76.01h6.66c18.56-.35,26.27-17.69,26.27-39.58,0-18.74-7.71-36.43-26.27-36.43"/>
      <path class="cls-2" d="M540.34,586.07h-49.04v-22.94h7.36v-41.86h-7.36v-22.77h40.63v64.62h8.41v22.94ZM515.12,455.06c12.08,0,19.26,9.81,19.26,17.86,0,9.63-6.83,17.69-19.26,17.69-11.03,0-18.92-9.28-18.92-17.69s6.66-17.86,18.92-17.86"/>
      <path class="cls-2" d="M561.7,587.12c4.03,3.5,17.16,11.21,30.47,11.21,15.76,0,20.32-9.11,20.32-16.46v-5.96c-2.45,3.15-9.28,9.63-20.49,9.63-30.12,0-42.03-21.72-42.03-43.78,0-27.15,15.06-45.01,43.96-45.01,7.71,0,15.06,3.68,18.56,7.18l3.5-5.43h41.68v22.94h-10.51v52.37c0,29.07-17.86,47.99-54.64,48.16-19.26-.18-33.45-9.28-40.11-15.41l9.28-19.44ZM599.88,562.95c6.83,0,13.14-8.58,12.43-22.42,0-11.91-5.95-21.02-12.61-21.02-7.36,0-12.43,8.58-12.43,21.89,0,10.51,4.9,21.54,12.61,21.54"/>
      <polygon class="cls-2" points="788.21 463.65 788.21 509.18 762.47 509.18 762.47 486.76 747.76 486.76 747.76 562.77 762.29 562.77 762.29 586.07 697.14 586.07 697.14 562.77 711.5 562.77 711.5 486.76 696.44 486.76 696.44 509.18 670.7 509.18 670.7 463.65 788.21 463.65"/>
      <path class="cls-2" d="M876.13,573.98c-12.96,11.21-26.97,15.24-45.19,15.24-21.72,0-46.24-13.84-46.24-47.46,0-28.72,20.66-45.71,47.11-45.71,20.84,0,36.78,10.68,41.86,25.39,2.1,6.13,4.03,19.62.35,29.6h-55.17c1.05,4.73,3.33,14.36,18.04,14.36,5.96,0,15.06-.53,24.52-8.41l14.71,16.99ZM819.38,533.7h26.45c-.17-6.66-1.75-14.01-12.96-14.01s-13.14,9.63-13.49,14.01"/>
      <polygon class="cls-2" points="937.77 586.07 886.63 586.07 886.63 563.12 894.16 563.12 894.16 477.31 886.81 477.31 886.81 454.71 927.44 454.71 927.44 563.12 937.77 563.12 937.77 586.07"/>
    </g>
    <path class="cls-2" d="M244.94,597.53l-72.63-41.93v-83.87l11-6.35-15.11-26-17.96,10.37c-4.94,2.85-8.01,8.16-8.01,13.86v100.12c0,5.7,3.07,11.01,8,13.86l86.72,50.07c2.47,1.42,5.23,2.13,7.99,2.13s5.53-.71,8-2.14l18.46-10.66-15.11-26-11.35,6.55Z"/>
    <path class="cls-2" d="M324.62,458.08l-86.71-50.06c-4.93-2.85-11.06-2.85-16,0l-17.23,9.95-25.47,14.71-.58.33,15.11,26,72.98,125.61,15.11,26,.58-.33,25.47-14.7,16.74-9.67c4.93-2.85,8-8.16,8-13.85v-100.12c0-5.69-3.06-11-8-13.86M219.79,443.97l10.12-5.84,72.63,41.94v83.87l-9.77,5.64-72.98-125.61Z"/>
  </g>
</svg>